<mxfile host="app.diagrams.net" modified="2024-06-30T06:37:13.173Z" agent="Mozilla/5.0 (Windows NT 10.0; Win64; x64) AppleWebKit/537.36 (KHTML, like Gecko) Chrome/127.0.0.0 Safari/537.36 Edg/127.0.0.0" etag="tVydrzX9hZQ0HUdxlPc6" version="24.6.4" type="github">
  <diagram name="第 1 页" id="T5yRbEDXUJkxGa522EW_">
    <mxGraphModel dx="1426" dy="743" grid="1" gridSize="10" guides="1" tooltips="1" connect="1" arrows="1" fold="1" page="1" pageScale="1" pageWidth="827" pageHeight="1169" math="0" shadow="0">
      <root>
        <mxCell id="0" />
        <mxCell id="1" parent="0" />
        <mxCell id="5ttuxPbPNF2cJEjVEJNL-1" value="&lt;font face=&quot;Times New Roman&quot;&gt;PLL&lt;/font&gt;" style="rounded=0;whiteSpace=wrap;html=1;" vertex="1" parent="1">
          <mxGeometry x="100" y="310" width="120" height="60" as="geometry" />
        </mxCell>
        <mxCell id="5ttuxPbPNF2cJEjVEJNL-2" value="&lt;div&gt;&lt;font face=&quot;Times New Roman&quot;&gt;clk&amp;nbsp; &amp;nbsp; &amp;nbsp; &amp;nbsp; &amp;nbsp; &amp;nbsp; &amp;nbsp; &amp;nbsp; &amp;nbsp; &amp;nbsp; &amp;nbsp; &amp;nbsp; &amp;nbsp; &amp;nbsp; &amp;nbsp;&amp;nbsp;&lt;/font&gt;&lt;/div&gt;&lt;div&gt;&lt;span style=&quot;background-color: initial;&quot;&gt;计数器&lt;/span&gt;&lt;br&gt;&lt;/div&gt;&lt;div&gt;&lt;br&gt;&lt;/div&gt;&lt;div&gt;&lt;font face=&quot;Times New Roman&quot;&gt;clr&amp;nbsp; &amp;nbsp; &amp;nbsp; &amp;nbsp; &amp;nbsp; &amp;nbsp; &amp;nbsp; &amp;nbsp; &amp;nbsp; &amp;nbsp; &amp;nbsp; &amp;nbsp; &amp;nbsp; &amp;nbsp; &amp;nbsp;&lt;/font&gt;&lt;/div&gt;" style="rounded=0;whiteSpace=wrap;html=1;" vertex="1" parent="1">
          <mxGeometry x="280" y="240" width="120" height="70" as="geometry" />
        </mxCell>
        <mxCell id="5ttuxPbPNF2cJEjVEJNL-3" value="&lt;div style=&quot;text-align: left;&quot;&gt;&lt;font face=&quot;Times New Roman&quot;&gt;address&amp;nbsp; &amp;nbsp; &amp;nbsp; &amp;nbsp; &amp;nbsp; &amp;nbsp; &amp;nbsp; &amp;nbsp; &amp;nbsp; &amp;nbsp;&amp;nbsp;&lt;/font&gt;&lt;/div&gt;&lt;div&gt;&lt;font face=&quot;cEjYGs6GHXwc83gOb5KY&quot;&gt;&lt;br&gt;&lt;/font&gt;&lt;/div&gt;&lt;font face=&quot;cEjYGs6GHXwc83gOb5KY&quot;&gt;ROM&lt;/font&gt;&lt;div&gt;&lt;div&gt;&lt;div&gt;&lt;font face=&quot;cEjYGs6GHXwc83gOb5KY&quot;&gt;clk&amp;nbsp; &amp;nbsp; &amp;nbsp; &amp;nbsp; &amp;nbsp; &amp;nbsp; &amp;nbsp; &amp;nbsp; &amp;nbsp; &amp;nbsp; &amp;nbsp; &amp;nbsp; &amp;nbsp; &amp;nbsp; &amp;nbsp;&lt;/font&gt;&lt;/div&gt;&lt;/div&gt;&lt;/div&gt;" style="rounded=0;whiteSpace=wrap;html=1;" vertex="1" parent="1">
          <mxGeometry x="460" y="300" width="150" height="70" as="geometry" />
        </mxCell>
        <mxCell id="5ttuxPbPNF2cJEjVEJNL-4" value="&lt;font face=&quot;Times New Roman&quot;&gt;DA&lt;/font&gt;模块" style="rounded=0;whiteSpace=wrap;html=1;" vertex="1" parent="1">
          <mxGeometry x="650" y="310" width="90" height="50" as="geometry" />
        </mxCell>
        <mxCell id="5ttuxPbPNF2cJEjVEJNL-5" value="示波器&lt;div&gt;&lt;br&gt;&lt;/div&gt;" style="rounded=0;whiteSpace=wrap;html=1;" vertex="1" parent="1">
          <mxGeometry x="790" y="285" width="40" height="100" as="geometry" />
        </mxCell>
      </root>
    </mxGraphModel>
  </diagram>
</mxfile>
